<svg xmlns="http://www.w3.org/2000/svg" viewBox="0 0 671 698.82"><title>Element 2</title><g id="Ebene_2" data-name="Ebene 2"><g id="Ebene_1-2" data-name="Ebene 1"><path id="path14" d="M569.11,1.27c-1.06-2.51-4.42-1.49-14.49,4.8a63.88,63.88,0,0,0-15.74,13.47c-11.66,15.19-12,16-11.84,33.92,0,17.82.53,19.53,11.84,38.37,7.07,12.11,24.4,30.27,28.64,30.15,3.36,0,7.78-5.14,15.73-19.07,10.61-18,8.84-43.4-5.12-77.32-1.42-3.19-3.71-9.59-5.31-14.27s-3.35-9.25-3.71-10Z"/><path id="path18" d="M635.94,89.21c-21,6.28-41.37,26.15-52.15,51.16-8.14,18.5-12.2,47.74-9.37,65.32,1.23,7,1.76,7.77,5.12,7.77,9.73-.12,32.88-15.53,43-28.55,13.08-16.68,23.34-40.43,27.22-63.39a156.16,156.16,0,0,1,3.54-15.3c1.94-6.74,2.47-19.87.71-21C652.91,84.52,648.49,85.55,635.94,89.21Z"/><path id="path22" d="M482,134.66c-2.83,0-11.14,12.56-13.61,20.55-4.25,12.91-2.83,28.9,4.06,46.26,4.25,10.73,7.78,18,10.43,21.35,1.42,1.6,2.48,3.77,2.48,4.69s1.06,3.19,2.47,5c1.24,1.71,3.54,5,4.95,7.19,4.95,7.2,33.06,44,35.54,46.14,2.29,1.94,2.82,1.83,8.48-2.85,14.14-11.77,17.5-19.07,17.5-38.6,0-15.08-.88-18.85-8.31-35.52-9.54-21.81-31.11-48.76-54.44-67.72C487.09,137.63,482.84,134.66,482,134.66Z"/><path id="path26" d="M669.88,173.26c-2-1.37-21.22,8.11-33.59,16.33-10.61,7.19-17.86,13.48-30.23,26.72a114.18,114.18,0,0,0-11.49,16c-1.59,2.51-4.07,6.63-5.48,9.14-9.72,16.33-21.92,50.93-24.93,70.58-1.41,8.1.71,9,11.67,4.91,4.24-1.6,9.37-3.43,11.49-4.12,7.07-1.94,33.94-19.52,41.9-27.29,6.54-6.51,9.19-9.59,17.15-19.76,1.59-1.94,6.54-11.53,11.13-21.47,3.18-6.62,7.25-20.21,10.61-35.51,2.83-11.88,3.89-34.27,1.77-35.52Z"/><path id="path30" d="M482.67,263c-1.42-2.28-3.54-3.88-4.78-3.65-2.47.57-27,20.55-29.87,24.32a58,58,0,0,1-5.13,5.71c-11.31,11.42-20.33,26.27-29.34,48.54-3.89,9.48-4.42,53.45-.89,61.67a55.31,55.31,0,0,1,3.71,10.85c3.36,13.25,8.31,22.27,12.2,22.27,4.24,0,26.7-21.93,37.3-36.55,11-15.07,14.68-21.81,22.45-42.25,4.42-12,4.42-63,0-73.78-1.59-3.88-3-8.45-3-10s-1.24-4.91-2.65-7.08Z"/><path id="path34" d="M657.33,304.14c-2.66.91-9.37,2.85-14.68,4.11-15.91,4.11-48.26,13.93-57.45,17.47-40,15.53-67.88,33.23-81,51.62-8.13,11.31-12.55,19.64-14.49,27.07-.89,3.76-.53,4.34,2.47,4.34,2.65,0,61.35-18.51,72.66-22.85,1.41-.57,8.84-3.42,16.44-6.28,35.36-13.13,62.4-30.6,75-48.53,7.6-10.74,15.2-26,13.61-27.64C668.46,302.08,663,302.31,657.33,304.14Z"/><path id="path38" d="M593.15,393.9c-20.68,1.48-42.25,4.57-56.74,8.11-5.31,1.25-11.49,2.74-14,3.31-5.12,1-23.33,7.19-30.93,10.28-3,1.25-6.55,2.62-8,3.08-9.72,2.86-47,24.78-61,35.75-12.55,9.93-30.94,28-30.94,30.26,0,2.06.36,2.06,19.45.57,33.94-2.74,58.52-6.85,84.32-14.5,5.13-1.49,11-3.2,13.26-3.77s5.66-1.83,7.61-2.63,7.6-2.85,12.37-4.68C558,448.6,599.87,423,621.44,403c2.47-2.16,4.95-4.22,5.48-4.56,1.77-1,3.36-4.8,2.3-5.83S626.21,391.61,593.15,393.9Z"/><path id="path42" d="M388.8,397c-1.06-.68-15.56,4.11-20.33,6.74a10.66,10.66,0,0,1-4.07,1.6c-3,0-31.47,14.85-44.55,23.3s-28.46,20.55-31.29,24.66c-.71.92-2.83,3.2-4.77,5.14a234.61,234.61,0,0,0-17.5,22.84c-12.38,19.19-21.92,51.85-19.8,67.61.35,2.4,3.71,1.72,14.14-2.74,21.92-9.14,44.55-22.27,60.28-34.6,4.42-3.43,9-7,10.26-7.88,3-2.06,13.43-12.56,19.09-19.3,2.47-3,5.12-6.17,6-7.08,4.6-5,14.49-20.79,17.68-28a51.16,51.16,0,0,1,3.36-6.86c7.42-14.27,14.85-43.16,11.49-45.45Z"/><path id="path46" d="M503.88,487.66c-13.79-1.14-40.31-.34-50.38,1.6-4.42.8-9.9,1.71-12.38,2.05-9.54,1.26-29.87,6.51-53.56,14.16-21,6.63-22.63,7.2-33.59,12a114.33,114.33,0,0,1-11.14,4.34c-.35,0-5.65,2.39-11.66,5.25-28.29,13.25-51.27,26.38-50.56,28.66.53,1.95,1.76,2.4,13.79,5.6,10.78,3,52.32,2.86,68.06,0,5.83-1.14,15-2.74,20.33-3.77s12-2.4,15-3.2c2.83-.8,8.84-2.28,13.26-3.42,11.14-2.86,51.8-15.76,64.53-20.56,5.83-2.17,12.19-4.45,14.14-5.14s5.83-2.17,8.84-3.42c2.83-1.26,6.54-2.63,7.95-3.09,10.79-3.65,37.13-15.87,37.13-17.24,0-2.17-6.9-7.08-9.73-7.08a8.78,8.78,0,0,1-4.06-1.37c-3.18-2.06-14.5-4.46-26-5.37Z"/><path id="path50" d="M219.26,491.54c-5.3-1.14-29,1.94-40.66,5.26C156.68,503.08,128.22,519.18,106,538c-7.25,6.06-13.08,11.31-13.08,11.65s-2.13,2.74-5,5.48A133.51,133.51,0,0,0,69,578.34c-7.42,11.07-13.79,24.66-12.9,28.2.7,3.32,5.83,3.89,19.8,2a151.62,151.62,0,0,0,43.48-13.14c20-9.93,47.38-30.26,64.7-48.19,3.72-4,8.31-8.57,9.9-10.28,1.77-1.71,3.89-4.11,5-5.37s3.36-3.88,5.31-5.71,4.24-4.45,5.3-5.71,3.36-3.88,5.3-5.71a56.76,56.76,0,0,0,5.13-5.71,71.05,71.05,0,0,1,6.19-6.62c6-5.71,6-8.57-.36-9.48-2.65-.34-5.65-.8-6.54-1Z"/><path id="path54" d="M369.53,577.77c-19.8-1.95-71.25.11-104.3,4.11-23,2.85-53.92,8.22-61.17,10.85-5.3,1.71-4.07,3.65,5.83,9.82,14.85,9,40.13,16,73.9,20.44,21,2.85,99.88,2.85,135.24,0,24-1.83,55.33-5.14,57.8-6,.71-.23.36-1.83-.88-3.54-11.49-17.13-42.43-29.58-83.44-33.46-6.9-.58-17.15-1.6-23-2.17Z"/><path id="path58" d="M73.07,622.08c-3.72,2.39,15.2,20.78,30.05,29.23q36.33,20.9,114.38,33c24.22,3.88,35.53,5.36,38.89,5.36,1.94,0,9,.69,15.91,1.6,21.74,3,60.81,7.54,64.35,7.54,1.76,0,2.12-1.48,1.06-6.4-4.25-22.15-42.61-44.88-99.88-59.27-4.42-1-10.61-2.62-13.79-3.54a41.18,41.18,0,0,0-8.84-1.6,65.38,65.38,0,0,1-10.08-1.59c-8.13-1.83-27.05-4.46-48.61-6.86C126.81,616.37,79.61,617.85,73.07,622.08Z"/><path id="path62" d="M.76,642c14.15,23.29,22.1,33.23,31.65,39.51a69.31,69.31,0,0,0,40,11.42l10.78-.34-.53-3.43c-1.76-12.33-23.69-29.23-51.26-39.63-4.6-1.71-13.09-4.68-18.92-6.62C-.12,638.75-1.18,638.64.76,642Z"/></g></g></svg>