<svg xmlns="http://www.w3.org/2000/svg" viewBox="0 0 671 698.82"><title>Element 1</title><g id="Ebene_2" data-name="Ebene 2"><g id="Ebene_1-2" data-name="Ebene 1"><path id="path14" d="M101.88,1.27c-.35.8-2.12,5.37-3.71,10.05s-3.89,11.08-5.3,14.27c-14,33.92-15.73,59.28-5.13,77.32,8,13.93,12.38,19.07,15.74,19.07,4.24.12,21.56-18,28.63-30.15C143.43,73,144,71.28,144,53.46c.18-17.93-.18-18.73-11.85-33.92A63.64,63.64,0,0,0,116.38,6.07C106.3-.22,103-1.24,101.88,1.27Z"/><path id="path18" d="M17,85.21c-1.77,1.14-1.24,14.27.71,21a153.54,153.54,0,0,1,3.53,15.3c3.89,23,14.15,46.71,27.23,63.39,10.07,13,33.23,28.43,43,28.55,3.36,0,3.89-.8,5.13-7.77,2.83-17.58-1.24-46.82-9.37-65.32-10.78-25-31.11-44.88-52.15-51.16C22.51,85.55,18.09,84.52,17,85.21Z"/><path id="path22" d="M179.49,141.17c-23.33,19-44.9,45.91-54.45,67.72-7.42,16.67-8.31,20.44-8.31,35.52,0,19.53,3.36,26.83,17.51,38.6,5.65,4.68,6.18,4.79,8.48,2.85,2.48-2.17,30.58-38.94,35.53-46.14,1.42-2.17,3.72-5.48,4.95-7.19,1.42-1.83,2.48-4,2.48-5s1.06-3.09,2.47-4.69c2.66-3.31,6.19-10.62,10.43-21.35,6.9-17.36,8.31-33.35,4.07-46.26-2.48-8-10.78-20.55-13.61-20.55C188.15,134.66,183.91,137.63,179.49,141.17Z"/><path id="path26" d="M1.12,173.26C-1,174.51.06,196.9,2.89,208.78c3.36,15.3,7.42,28.89,10.6,35.51,4.6,9.94,9.55,19.53,11.14,21.47,8,10.17,10.61,13.25,17.15,19.76,7.95,7.77,34.83,25.35,41.9,27.29,2.12.69,7.24,2.52,11.49,4.12,11,4.11,13.08,3.19,11.66-4.91-3-19.65-15.2-54.25-24.92-70.58-1.42-2.51-3.89-6.63-5.48-9.14a115,115,0,0,0-11.49-16c-12.38-13.24-19.62-19.53-30.23-26.72-12.38-8.22-31.65-17.7-33.59-16.33Z"/><path id="path30" d="M188.33,263c-1.41,2.17-2.65,5.37-2.65,7.08s-1.42,6.17-3,10c-4.42,10.74-4.42,61.79,0,73.78,7.78,20.44,11.49,27.18,22.45,42.25,10.61,14.62,33.06,36.55,37.31,36.55,3.88,0,8.83-9,12.19-22.27a56,56,0,0,1,3.72-10.85c3.53-8.22,3-52.19-.89-61.67-9-22.27-18-37.12-29.34-48.54a56.76,56.76,0,0,1-5.13-5.71c-2.83-3.77-27.4-23.75-29.88-24.32-1.23-.23-3.36,1.37-4.77,3.65Z"/><path id="path34" d="M1.12,303.45c-1.59,1.6,6,16.9,13.61,27.64,12.55,17.93,39.6,35.4,75,48.53,7.6,2.86,15,5.71,16.44,6.28,11.31,4.34,70,22.85,72.65,22.85,3,0,3.36-.58,2.48-4.34-1.95-7.43-6.36-15.76-14.5-27.07-13.08-18.39-41-36.09-81-51.62-9.19-3.54-41.55-13.36-57.46-17.47-5.3-1.26-12-3.2-14.67-4.11C8,302.31,2.53,302.08,1.12,303.45Z"/><path id="path38" d="M41.78,392.64c-1.06,1,.53,4.8,2.3,5.83.53.34,3,2.4,5.48,4.56,21.57,20,63.46,45.57,92.81,56.65,4.77,1.83,10.43,3.88,12.37,4.68s5.31,1.94,7.6,2.63,8.14,2.28,13.26,3.77c25.81,7.65,50.38,11.76,84.33,14.5,19.09,1.49,19.44,1.49,19.44-.57,0-2.28-18.38-20.33-30.93-30.26-14-11-51.27-32.89-61-35.75-1.42-.46-4.95-1.83-8-3.08-7.6-3.09-25.81-9.25-30.94-10.28-2.47-.57-8.66-2.06-14-3.31-14.5-3.54-36.06-6.63-56.75-8.11C44.78,391.61,42.84,391.5,41.78,392.64Z"/><path id="path42" d="M282.2,397c-3.36,2.29,4.07,31.18,11.49,45.45a53.69,53.69,0,0,1,3.36,6.86c3.18,7.19,13.08,22.95,17.68,28,.88.91,3.53,4.11,6,7.08,5.66,6.74,16.09,17.24,19.09,19.3,1.24.91,5.83,4.45,10.25,7.88,15.74,12.33,38.37,25.46,60.29,34.6,10.43,4.46,13.79,5.14,14.14,2.74,2.12-15.76-7.43-48.42-19.8-67.61a234.61,234.61,0,0,0-17.5-22.84c-1.95-1.94-4.07-4.22-4.77-5.14-2.83-4.11-18.21-16.1-31.29-24.66s-41.55-23.3-44.55-23.3a10.6,10.6,0,0,1-4.07-1.6c-4.77-2.63-19.27-7.42-20.33-6.74Z"/><path id="path46" d="M167.12,487.66c-11.49.91-22.81,3.31-26,5.37a8.86,8.86,0,0,1-4.07,1.37c-2.82,0-9.72,4.91-9.72,7.08,0,1.37,26.34,13.59,37.13,17.24,1.41.46,5.12,1.83,7.95,3.09,3,1.25,6.89,2.74,8.84,3.42s8.31,3,14.14,5.14c12.73,4.8,53.39,17.7,64.53,20.56,4.42,1.14,10.43,2.62,13.25,3.42,3,.8,9.73,2.29,15,3.2s14.5,2.63,20.33,3.77c15.73,2.86,57.28,3,68.06,0,12-3.2,13.26-3.65,13.79-5.6.71-2.28-22.27-15.41-50.56-28.66-6-2.86-11.31-5.25-11.67-5.25A113.58,113.58,0,0,1,317,517.47c-11-4.8-12.55-5.37-33.59-12-23.69-7.65-44-12.9-53.57-14.16-2.47-.34-8-1.25-12.37-2.05-10.08-1.94-36.59-2.74-50.38-1.6Z"/><path id="path50" d="M451.73,491.54c-.88.23-3.89.69-6.54,1-6.36.91-6.36,3.77-.35,9.48a72.47,72.47,0,0,1,6.19,6.62,57.73,57.73,0,0,0,5.12,5.71c2,1.83,4.25,4.46,5.31,5.71s3.35,3.77,5.3,5.71,4.24,4.46,5.3,5.71,3.18,3.66,4.95,5.37c1.59,1.71,6.19,6.28,9.9,10.28,17.33,17.93,44.73,38.26,64.7,48.19a151.78,151.78,0,0,0,43.49,13.14c14,1.94,19.09,1.37,19.8-2,.89-3.54-5.48-17.13-12.9-28.2a133.51,133.51,0,0,0-18.92-23.19c-2.83-2.74-5-5.14-5-5.48s-5.83-5.59-13.08-11.65c-22.28-18.84-50.74-34.94-72.66-41.22-11.66-3.32-35.35-6.4-40.66-5.26Z"/><path id="path54" d="M301.47,577.77c-5.83.57-16.09,1.59-23,2.17-41,3.88-72,16.33-83.44,33.46-1.24,1.71-1.59,3.31-.89,3.54,2.48.91,33.77,4.22,57.81,6,35.36,2.85,114.2,2.85,135.24,0,33.76-4.45,59-11.42,73.89-20.44,9.9-6.17,11.14-8.11,5.84-9.82-7.25-2.63-38.19-8-61.17-10.85-33.06-4-84.5-6.06-104.3-4.11Z"/><path id="path58" d="M514.49,619.56c-21.57,2.4-40.48,5-48.61,6.86A65.38,65.38,0,0,1,455.8,628a41.18,41.18,0,0,0-8.84,1.6c-3.18.92-9.37,2.52-13.79,3.54-57.28,14.39-95.64,37.12-99.88,59.27-1.06,4.92-.71,6.4,1.06,6.4,3.54,0,42.61-4.57,64.35-7.54,6.89-.91,14-1.6,15.91-1.6,3.36,0,14.67-1.48,38.89-5.36q78-12.17,114.38-33c14.85-8.45,33.76-26.84,30-29.23C591.39,617.85,544.19,616.37,514.49,619.56Z"/><path id="path62" d="M658.57,642.86c-5.84,1.94-14.32,4.91-18.92,6.62-27.58,10.4-49.5,27.3-51.27,39.63l-.53,3.43,10.79.34a69.33,69.33,0,0,0,40-11.42c9.55-6.28,17.5-16.22,31.64-39.51C672.18,638.64,671.12,638.75,658.57,642.86Z"/></g></g></svg>