<?xml version="1.0" standalone="no"?>
<!DOCTYPE svg PUBLIC "-//W3C//DTD SVG 20010904//EN"
 "http://www.w3.org/TR/2001/REC-SVG-20010904/DTD/svg10.dtd">
<svg version="1.0" xmlns="http://www.w3.org/2000/svg"
 width="196.000000pt" height="196.000000pt" viewBox="0 0 196.000000 196.000000"
 preserveAspectRatio="xMidYMid meet">
<metadata>
Created by potrace 1.11, written by Peter Selinger 2001-2013
</metadata>
<g transform="translate(0.000000,196.000000) scale(0.100000,-0.100000)"
fill="#000000" stroke="none">
<path d="M0 980 l0 -850 980 0 980 0 0 850 0 850 -980 0 -980 0 0 -850z m910
350 l0 -250 -30 0 -30 0 0 95 0 95 -62 0 c-69 0 -130 23 -163 59 -24 28 -32
134 -13 170 31 58 87 78 216 80 l82 1 0 -250z m387 227 c118 -62 102 -233 -26
-276 -19 -6 -60 -11 -92 -11 l-59 0 0 -95 0 -95 -30 0 -30 0 0 251 0 252 103
-5 c67 -3 113 -10 134 -21z m-41 -728 c10 -17 -13 -36 -27 -22 -12 12 -4 33
11 33 5 0 12 -5 16 -11z m-996 -129 c0 -67 -4 -110 -10 -110 -6 0 -10 43 -10
110 0 67 4 110 10 110 6 0 10 -43 10 -110z m200 101 c0 -6 -15 -11 -32 -13
l-33 -3 -3 -97 c-4 -130 -22 -128 -22 2 l0 100 -30 0 c-16 0 -30 5 -30 10 0 6
32 10 75 10 41 0 75 -4 75 -9z m231 -1 c32 -18 21 -29 -16 -17 -30 9 -38 8
-53 -6 -21 -22 -7 -47 34 -60 16 -5 37 -16 47 -25 22 -19 22 -65 0 -83 -20
-17 -98 -18 -114 -2 -19 19 -5 25 24 12 47 -21 96 6 81 46 -3 7 -26 22 -50 31
-49 19 -69 44 -59 75 11 33 68 49 106 29z m179 -60 c11 -11 20 -31 20 -45 0
-23 -3 -25 -50 -25 -43 0 -50 -3 -50 -20 0 -25 35 -44 66 -36 13 4 24 2 24 -3
0 -15 -57 -23 -79 -11 -47 25 -56 96 -16 135 29 30 58 32 85 5z m100 3 c0 -15
1 -15 18 0 21 19 42 22 42 7 0 -5 -6 -10 -14 -10 -26 0 -46 -42 -46 -97 0 -29
-4 -53 -10 -53 -6 0 -10 35 -10 85 0 50 4 85 10 85 6 0 10 -7 10 -17z m119
-53 c12 -38 24 -70 26 -70 2 0 14 32 25 70 12 40 26 70 34 70 9 0 5 -24 -17
-85 -21 -62 -34 -85 -45 -83 -20 4 -76 168 -57 168 8 0 22 -29 34 -70z m161
-15 c0 -50 -4 -85 -10 -85 -6 0 -10 35 -10 85 0 50 4 85 10 85 6 0 10 -35 10
-85z m154 79 c26 -10 18 -25 -9 -18 -35 9 -65 -20 -65 -62 0 -43 25 -68 62
-60 34 7 38 -11 4 -20 -39 -9 -67 5 -82 43 -31 73 23 143 90 117z m154 -11
c11 -10 23 -30 26 -45 6 -28 6 -28 -49 -28 -59 0 -70 -13 -38 -45 12 -12 26
-15 52 -11 34 6 35 5 17 -9 -29 -22 -64 -18 -93 11 -22 22 -25 32 -20 67 9 67
62 97 105 60z m156 11 c29 -11 17 -23 -21 -21 -32 2 -38 -1 -38 -17 0 -13 10
-22 28 -27 59 -16 75 -55 35 -83 -28 -20 -58 -20 -84 -2 -17 14 -15 15 26 13
39 -2 45 1 48 19 2 16 -6 24 -38 36 -50 20 -61 45 -31 70 24 19 48 22 75 12z
m-1154 -64 c0 -5 -20 -10 -45 -10 -25 0 -45 5 -45 10 0 6 20 10 45 10 25 0 45
-4 45 -10z m17 -327 c-2 -16 -4 -5 -4 22 0 28 2 40 4 28 2 -13 2 -35 0 -50z
m133 42 c10 0 15 -11 16 -35 l2 -35 -5 33 c-5 40 -25 38 -34 -4 -5 -22 -7 -18
-7 21 0 28 2 43 6 35 4 -8 14 -15 22 -15z m153 18 c-7 -2 -19 -2 -25 0 -7 3
-2 5 12 5 14 0 19 -2 13 -5z m257 -8 c10 -12 10 -18 0 -30 -7 -8 -18 -15 -25
-15 -8 0 -16 -8 -18 -17 -3 -10 -5 3 -6 30 -1 40 2 47 18 47 10 0 24 -7 31
-15z m132 -37 c2 -20 0 -34 -4 -32 -4 3 -8 24 -7 47 1 47 6 41 11 -15z m145
-15 c-2 -16 -4 -5 -4 22 0 28 2 40 4 28 2 -13 2 -35 0 -50z m-780 -5 c-2 -13
-4 -5 -4 17 -1 22 1 32 4 23 2 -10 2 -28 0 -40z m39 11 c2 -31 1 -31 -3 -4 -3
16 -10 34 -16 38 -8 6 -7 7 3 4 9 -2 16 -17 16 -38z m255 27 c-5 -6 -11 -22
-14 -36 -3 -19 -5 -17 -6 11 -1 25 3 36 14 36 9 0 11 -4 6 -11z m36 -38 c-2
-13 -4 -5 -4 17 -1 22 1 32 4 23 2 -10 2 -28 0 -40z m63 48 c0 -2 -7 -7 -16
-10 -8 -3 -12 -2 -9 4 6 10 25 14 25 6z m168 -31 c1 -17 -1 -25 -5 -19 -4 6
-15 14 -23 17 -12 4 -11 6 3 6 9 1 17 5 17 10 0 5 -8 12 -17 15 -14 4 -14 4 2
3 14 -2 21 -11 23 -32z m142 25 c0 -5 -7 -7 -15 -4 -8 4 -15 8 -15 10 0 2 7 4
15 4 8 0 15 -4 15 -10z m53 3 c-16 -6 -17 -49 -3 -56 6 -3 5 -4 -2 -3 -26 5
-22 67 4 65 10 0 10 -2 1 -6z m-516 -19 c-3 -3 -12 -4 -19 -1 -8 3 -5 6 6 6
11 1 17 -2 13 -5z m147 -43 c-5 -6 -34 20 -34 30 0 5 8 1 18 -8 10 -10 17 -20
16 -22z m316 35 c0 -2 -9 -6 -20 -9 -11 -3 -18 -1 -14 4 5 9 34 13 34 5z
m-165 -34 c-3 -3 -11 0 -18 7 -9 10 -8 11 6 5 10 -3 15 -9 12 -12z m169 10 c2
-4 -7 -8 -22 -9 -24 -2 -24 -1 -7 7 11 5 21 9 22 9 1 1 4 -3 7 -7z m-461 -9
c-7 -2 -19 -2 -25 0 -7 3 -2 5 12 5 14 0 19 -2 13 -5z"/>
<path d="M730 1523 c-53 -19 -79 -80 -60 -138 15 -45 53 -65 125 -65 l55 0 0
105 0 105 -52 -1 c-29 0 -60 -3 -68 -6z"/>
<path d="M1120 1424 l0 -106 71 4 c63 3 74 7 95 31 26 31 32 92 13 129 -15 28
-69 48 -129 48 l-50 0 0 -106z"/>
<path d="M802 728 c-24 -24 -13 -38 28 -38 26 0 40 5 40 13 0 18 -21 37 -40
37 -9 0 -21 -5 -28 -12z"/>
<path d="M1492 728 c-24 -24 -13 -38 28 -38 26 0 40 5 40 13 0 18 -21 37 -40
37 -9 0 -21 -5 -28 -12z"/>
<path d="M1080 400 c0 -15 5 -20 18 -18 9 2 17 10 17 18 0 8 -8 16 -17 18 -13
2 -18 -3 -18 -18z"/>
</g>
</svg>
